<?xml version="1.0" encoding="UTF-8"?>
<svg xmlns="http://www.w3.org/2000/svg" xmlns:xlink="http://www.w3.org/1999/xlink" viewBox="0 0 150 150" width="150px" height="150px">
<g id="surface17320983">
<path style=" stroke:none;fill-rule:nonzero;fill:rgb(90.588236%,29.803923%,23.529412%);fill-opacity:1;" d="M 74.789062 6.007812 C 74.460938 6.007812 74.128906 6.0625 73.8125 6.171875 L 11.015625 28.027344 C 9.683594 28.488281 8.847656 29.816406 9.023438 31.21875 L 18.949219 112.589844 C 19.066406 113.550781 19.636719 114.398438 20.492188 114.863281 L 73.4375 143.636719 C 73.878906 143.878906 74.375 144 74.867188 144 C 75.359375 144 75.859375 143.875 76.304688 143.632812 L 129.523438 114.460938 C 130.367188 113.996094 130.941406 113.152344 131.054688 112.195312 L 140.976562 30.832031 C 141.152344 29.425781 140.308594 28.082031 138.960938 27.628906 L 75.761719 6.160156 C 75.445312 6.054688 75.117188 6.003906 74.789062 6.007812 Z M 75 21 L 114 105 L 100.6875 105 L 92.34375 87.023438 L 57.65625 87.023438 L 49.3125 105 L 36 105 Z M 75 49.5 L 63.242188 75 L 86.757812 75 Z M 75 49.5 "/>
</g>
</svg>
