<?xml version="1.0" encoding="UTF-8"?>
<svg xmlns="http://www.w3.org/2000/svg" xmlns:xlink="http://www.w3.org/1999/xlink" viewBox="0 0 96 96" width="96px" height="96px">
<g id="surface17433057">
<path style=" stroke:none;fill-rule:nonzero;fill:rgb(90.588236%,29.803923%,23.529412%);fill-opacity:1;" d="M 19.753906 27.027344 C 15.671875 27.027344 11.53125 28.621094 10.839844 29.492188 C 10.660156 29.851562 10.242188 32.757812 11.234375 32.757812 C 11.5625 32.757812 11.714844 32.816406 12.675781 32.367188 C 16.273438 30.957031 18.554688 30.992188 18.886719 30.992188 C 22.933594 30.601562 25.273438 33.363281 24.914062 36.933594 L 24.914062 39.027344 C 21.492188 38.21875 19.539062 38.191406 18.582031 38.191406 C 13.601562 37.890625 9 40.515625 9 46.289062 C 9 52.617188 14.648438 53.972656 16.839844 53.882812 C 20.109375 53.914062 23.230469 52.441406 25.300781 49.894531 C 26.949219 53.582031 28 53.335938 28.03125 53.335938 C 28.332031 53.335938 28.570312 53.21875 28.8125 53.066406 L 30.523438 51.867188 C 30.820312 51.6875 31.058594 51.390625 31.089844 51.027344 C 31.058594 50.160156 29.5 48.808594 29.621094 45.777344 L 29.621094 36.421875 C 29.800781 33.84375 28.960938 31.316406 27.222656 29.367188 C 25.152344 27.628906 22.421875 26.789062 19.753906 27.027344 Z M 77.871094 27.027344 C 71.871094 27.027344 68.421875 30.777344 68.511719 34.585938 C 68.511719 39.808594 73.789062 41.460938 74.390625 41.644531 C 79.460938 43.234375 80.152344 43.289062 81.5625 44.492188 C 82.761719 45.71875 82.613281 48.121094 80.839844 49.171875 C 80.332031 49.472656 78.140625 50.789062 73.1875 49.769531 C 71.539062 49.441406 70.671875 49.050781 69.320312 48.480469 C 68.960938 48.359375 68.121094 48.148438 68.121094 49.257812 L 68.121094 50.730469 C 68.121094 51.421875 68.539062 52.046875 69.167969 52.347656 C 72.320312 53.9375 76.101562 54 76.910156 54 C 77.03125 54 83.929688 54.003906 86.238281 49.347656 C 86.714844 48.386719 87.949219 44.882812 85.640625 41.882812 C 83.71875 39.632812 82.070312 39.394531 77.148438 37.894531 C 76.730469 37.773438 73.101562 36.839844 73.128906 34.289062 C 72.949219 31.019531 77.390625 30.84375 78.320312 30.902344 C 82.070312 30.84375 83.929688 32.246094 84.949219 32.335938 C 85.398438 32.335938 85.609375 32.070312 85.609375 31.472656 L 85.609375 30.085938 C 85.640625 29.757812 85.523438 29.433594 85.339844 29.164062 C 84.140625 27.601562 79.550781 27.027344 77.871094 27.027344 Z M 32.332031 27.777344 C 32.003906 27.839844 31.761719 28.171875 31.820312 28.5 C 31.882812 28.890625 31.941406 29.28125 32.089844 29.671875 L 38.8125 51.835938 C 38.960938 52.558594 39.4375 53.339844 40.488281 53.222656 L 42.949219 53.222656 C 44.449219 53.371094 44.660156 51.929688 44.6875 51.777344 L 49.101562 33.296875 L 53.570312 51.808594 C 53.601562 51.957031 53.8125 53.398438 55.28125 53.25 L 57.773438 53.25 C 58.851562 53.371094 59.363281 52.585938 59.511719 51.867188 C 67.074219 27.539062 66.5625 29.191406 66.621094 28.953125 C 66.742188 27.691406 66.019531 27.777344 65.898438 27.808594 L 63.226562 27.808594 C 61.878906 27.660156 61.613281 28.890625 61.550781 29.191406 L 56.570312 48.421875 L 52.070312 29.191406 C 51.863281 27.722656 50.660156 27.777344 50.359375 27.808594 L 48.050781 27.808594 C 46.734375 27.6875 46.402344 28.742188 46.3125 29.191406 L 41.839844 48.152344 L 37.042969 29.191406 C 36.921875 28.589844 36.53125 27.660156 35.359375 27.777344 Z M 19.570312 41.671875 C 21.730469 41.703125 23.59375 42.027344 24.886719 42.328125 C 24.886719 43.828125 24.9375 44.667969 24.609375 46.019531 C 24.1875 47.460938 22.332031 50.074219 17.953125 50.132812 C 15.433594 50.253906 13.785156 48.269531 13.933594 46.019531 C 13.785156 42.417969 17.5 41.523438 19.570312 41.671875 Z M 87.125 60.007812 C 84.324219 60.042969 81.019531 60.671875 78.507812 62.433594 C 77.734375 62.96875 77.871094 63.714844 78.734375 63.613281 C 81.550781 63.277344 87.828125 62.515625 88.953125 63.949219 C 90.078125 65.382812 87.707031 71.300781 86.660156 73.945312 C 86.335938 74.734375 87.019531 75.0625 87.742188 74.460938 C 92.4375 70.53125 93.65625 62.292969 92.695312 61.105469 C 92.214844 60.515625 89.921875 59.96875 87.125 60.003906 Z M 3.648438 63.007812 C 2.996094 63.097656 2.714844 63.925781 3.398438 64.582031 C 15.148438 75.605469 30.675781 81 47.917969 81 C 60.214844 81 74.492188 76.988281 84.34375 69.429688 C 85.976562 68.171875 84.585938 66.289062 82.914062 67.03125 C 71.867188 71.90625 59.867188 74.257812 48.941406 74.257812 C 32.753906 74.257812 17.085938 70.875 4.40625 63.199219 C 4.128906 63.03125 3.867188 62.976562 3.648438 63.007812 Z M 3.648438 63.007812 "/>
</g>
</svg>
