<?xml version="1.0" encoding="UTF-8"?>
<svg xmlns="http://www.w3.org/2000/svg" xmlns:xlink="http://www.w3.org/1999/xlink" viewBox="0 0 150 150" width="150px" height="150px">
<g id="surface21072546">
<path style=" stroke:none;fill-rule:nonzero;fill:rgb(90.588236%,29.803923%,23.529412%);fill-opacity:1;" d="M 89.601562 9.023438 C 89.285156 9.070312 88.96875 9.164062 88.664062 9.304688 C 86.085938 10.582031 83.15625 14.378906 82.59375 15.128906 C 82.558594 15.175781 82.523438 15.222656 82.5 15.269531 C 79.605469 19.605469 78.058594 24.679688 78 29.964844 C 77.964844 33.925781 78.738281 37.851562 80.308594 41.636719 C 83.964844 50.414062 91.558594 57.679688 100.59375 61.078125 C 100.898438 61.183594 101.191406 61.289062 101.71875 61.476562 C 101.765625 61.5 102.210938 61.640625 102.28125 61.652344 L 102.609375 61.769531 C 103.078125 61.921875 103.558594 62.074219 104.027344 62.167969 C 106.40625 62.648438 108.726562 62.917969 110.90625 62.988281 C 111.28125 62.988281 111.65625 63 112.03125 63 C 128.472656 63 134.847656 51.398438 136.96875 47.53125 C 137.179688 47.15625 137.332031 46.851562 137.472656 46.664062 C 137.472656 46.652344 137.472656 46.652344 137.484375 46.640625 C 138.410156 45.269531 138.058594 43.40625 136.6875 42.46875 C 135.328125 41.542969 133.464844 41.894531 132.527344 43.265625 L 132.515625 43.265625 C 128.132812 49.722656 120.632812 51.679688 110.238281 49.101562 C 109.464844 48.914062 108.621094 48.621094 107.871094 48.339844 C 106.886719 47.988281 105.902344 47.578125 104.988281 47.132812 C 103.171875 46.230469 101.460938 45.152344 99.914062 43.957031 C 90.773438 36.867188 87.199219 22.113281 92.542969 13.59375 C 93.257812 12.457031 93.128906 10.980469 92.226562 9.984375 C 91.546875 9.234375 90.5625 8.894531 89.601562 9.023438 Z M 63.023438 15 C 62.34375 14.988281 61.652344 15.210938 61.089844 15.679688 C 56.554688 19.371094 51.914062 25.417969 51.714844 25.664062 C 51.691406 25.710938 51.667969 25.746094 51.632812 25.792969 C 43.429688 37.734375 42.808594 54.726562 50.0625 69.082031 C 51.199219 71.355469 52.488281 73.523438 53.859375 75.515625 L 54.269531 76.101562 C 55.429688 77.800781 56.730469 79.722656 58.394531 81.222656 C 58.96875 81.878906 59.589844 82.511719 60.199219 83.121094 L 60.492188 83.425781 L 60.738281 83.671875 C 61.359375 84.269531 61.992188 84.878906 62.648438 85.464844 L 62.660156 85.464844 C 62.707031 85.535156 62.777344 85.582031 62.835938 85.640625 C 63.574219 86.296875 64.324219 86.917969 65.320312 87.703125 L 65.589844 87.902344 C 66.363281 88.523438 67.148438 89.109375 67.957031 89.683594 C 68.039062 89.742188 68.121094 89.800781 68.203125 89.859375 C 68.484375 90.046875 68.765625 90.222656 69.046875 90.421875 L 69.328125 90.609375 L 69.65625 90.820312 C 70.253906 91.21875 70.839844 91.582031 71.671875 92.0625 C 72.210938 92.390625 72.785156 92.71875 73.160156 92.90625 C 73.324219 93 73.5 93.09375 73.910156 93.316406 L 74.824219 93.796875 C 74.871094 93.820312 75.082031 93.914062 75.128906 93.9375 C 75.726562 94.242188 76.347656 94.535156 76.96875 94.816406 L 77.917969 95.238281 C 78.539062 95.507812 79.171875 95.765625 79.945312 96.058594 L 80.296875 96.1875 C 80.320312 96.210938 80.613281 96.316406 80.636719 96.328125 C 81.199219 96.527344 81.773438 96.726562 82.347656 96.914062 L 83.660156 97.347656 C 84.316406 97.570312 85.078125 97.828125 85.910156 97.96875 C 90 98.648438 93.972656 99 97.734375 99 C 98.179688 99 98.625 98.988281 99.058594 98.988281 C 132.175781 98.261719 140.789062 70.125 140.871094 69.84375 C 141.28125 68.425781 140.613281 66.914062 139.277344 66.28125 C 137.941406 65.648438 136.347656 66.09375 135.515625 67.3125 C 127.125 79.570312 111.257812 84.75 95.097656 80.484375 C 94.347656 80.296875 93.621094 80.085938 92.71875 79.792969 C 92.566406 79.746094 92.4375 79.699219 92.191406 79.605469 C 91.664062 79.441406 91.148438 79.265625 90.5625 79.042969 L 89.730469 78.726562 C 89.25 78.539062 88.769531 78.351562 88.183594 78.09375 L 87.796875 77.917969 C 87.082031 77.613281 86.390625 77.273438 85.769531 76.96875 L 84.058594 76.078125 C 83.671875 75.890625 83.332031 75.679688 82.804688 75.363281 L 82.511719 75.199219 L 82.21875 75.023438 C 81.785156 74.765625 81.351562 74.496094 80.953125 74.214844 L 80.671875 74.039062 C 80.648438 74.027344 80.414062 73.863281 80.390625 73.839844 C 80.039062 73.617188 79.699219 73.394531 79.371094 73.183594 C 78.644531 72.667969 77.929688 72.128906 77.097656 71.472656 L 76.769531 71.203125 C 69.035156 65.027344 63.316406 56.777344 60.632812 47.929688 C 58.136719 39.808594 59.988281 29.179688 65.589844 19.5 C 66.316406 18.246094 66.046875 16.652344 64.933594 15.714844 C 64.382812 15.246094 63.703125 15 63.023438 15 Z M 30.011719 24 C 29.296875 24 28.570312 24.257812 27.996094 24.773438 C 22.265625 29.917969 17.976562 36.585938 17.507812 37.347656 C 5.25 55.195312 7.617188 82.933594 16.03125 99.890625 C 16.195312 100.242188 16.371094 100.582031 16.546875 100.921875 L 16.664062 101.109375 C 16.816406 101.449219 16.992188 101.800781 17.050781 101.871094 C 17.144531 102.09375 17.285156 102.339844 17.34375 102.410156 C 17.484375 102.703125 17.625 102.960938 17.882812 103.40625 L 18.84375 105.058594 C 18.984375 105.28125 19.125 105.515625 19.171875 105.597656 C 19.359375 105.902344 19.558594 106.21875 19.757812 106.535156 L 20.226562 107.285156 C 20.367188 107.507812 20.507812 107.707031 20.601562 107.824219 C 21.070312 108.550781 21.539062 109.277344 22.054688 109.96875 C 22.078125 110.003906 22.101562 110.027344 22.125 110.050781 L 22.3125 110.308594 C 22.734375 110.917969 23.167969 111.503906 23.554688 111.984375 L 25.265625 114.152344 C 25.289062 114.175781 25.476562 114.398438 25.488281 114.421875 L 25.734375 114.703125 C 26.25 115.335938 26.800781 115.96875 27.351562 116.578125 C 27.433594 116.671875 27.515625 116.753906 27.597656 116.847656 C 28.125 117.421875 28.664062 117.996094 29.226562 118.59375 L 29.765625 119.109375 C 30.210938 119.578125 30.65625 120.035156 31.125 120.46875 C 31.125 120.480469 31.347656 120.691406 31.347656 120.691406 L 31.816406 121.125 C 32.378906 121.664062 32.964844 122.203125 33.410156 122.578125 C 33.433594 122.613281 33.855469 122.976562 33.890625 123 C 34.441406 123.492188 34.992188 123.960938 35.554688 124.417969 L 38.425781 126.691406 C 38.90625 127.042969 39.398438 127.394531 39.960938 127.804688 C 40.148438 127.945312 40.347656 128.085938 40.546875 128.214844 C 40.628906 128.285156 40.722656 128.355469 40.78125 128.390625 L 42.9375 129.832031 C 43.722656 130.347656 44.507812 130.828125 45.46875 131.402344 L 45.984375 131.695312 C 46.582031 132.046875 47.191406 132.398438 47.765625 132.703125 C 48.105469 132.890625 48.445312 133.054688 48.738281 133.207031 C 49.148438 133.429688 49.59375 133.675781 50.273438 134.003906 C 50.332031 134.039062 50.8125 134.273438 50.871094 134.296875 C 51.550781 134.636719 52.242188 134.953125 53.109375 135.339844 C 53.109375 135.351562 53.390625 135.480469 53.390625 135.480469 C 54.1875 135.820312 54.960938 136.148438 55.980469 136.558594 C 56.144531 136.628906 56.308594 136.6875 56.34375 136.699219 C 57.070312 136.980469 57.832031 137.261719 58.453125 137.484375 C 58.511719 137.507812 58.828125 137.636719 58.886719 137.660156 C 59.71875 137.941406 60.539062 138.210938 61.59375 138.539062 C 61.769531 138.597656 61.957031 138.65625 61.980469 138.65625 L 62.578125 138.84375 C 63.304688 139.066406 64.03125 139.300781 64.816406 139.453125 C 70.394531 140.472656 75.84375 141 81 141 L 81.011719 141 C 123.984375 141 137.671875 106.417969 137.8125 106.066406 C 138.339844 104.671875 137.765625 103.101562 136.453125 102.375 C 135.164062 101.660156 133.523438 102 132.609375 103.183594 C 121.582031 117.703125 100.78125 123.09375 76.96875 117.621094 C 76.394531 117.480469 75.808594 117.316406 75.234375 117.140625 L 74.109375 116.800781 C 73.347656 116.566406 72.585938 116.308594 71.847656 116.050781 C 71.835938 116.050781 71.496094 115.921875 71.496094 115.921875 C 70.839844 115.699219 70.183594 115.441406 69.609375 115.21875 L 68.953125 114.960938 C 68.226562 114.667969 67.5 114.363281 66.796875 114.046875 L 66.386719 113.871094 C 65.753906 113.578125 65.144531 113.296875 64.535156 112.992188 C 64.488281 112.96875 64.007812 112.734375 63.960938 112.722656 C 63.539062 112.511719 63.117188 112.289062 62.578125 111.996094 L 60.128906 110.683594 C 59.882812 110.519531 59.625 110.367188 59.378906 110.238281 C 58.640625 109.78125 57.878906 109.324219 57.128906 108.84375 C 56.953125 108.738281 56.800781 108.621094 56.507812 108.421875 C 55.992188 108.09375 55.488281 107.753906 54.75 107.238281 L 54.457031 107.027344 C 53.953125 106.675781 53.460938 106.300781 53.050781 105.996094 C 52.792969 105.808594 52.535156 105.597656 52.113281 105.28125 C 51.738281 104.988281 51.363281 104.707031 51.011719 104.425781 L 50.355469 103.886719 C 49.804688 103.441406 49.289062 102.972656 48.75 102.515625 C 48.679688 102.445312 48.621094 102.398438 48.539062 102.339844 C 47.941406 101.789062 47.332031 101.238281 46.605469 100.546875 L 44.484375 98.4375 C 43.96875 97.910156 43.453125 97.371094 42.867188 96.726562 C 42.328125 96.128906 41.8125 95.53125 41.121094 94.710938 L 39.855469 93.164062 C 39.703125 92.941406 39.539062 92.71875 39.339844 92.484375 C 38.90625 91.898438 38.472656 91.324219 38.039062 90.714844 C 26.367188 74.636719 23.320312 41.074219 32.414062 28.78125 C 33.328125 27.550781 33.164062 25.816406 32.015625 24.773438 C 31.453125 24.257812 30.726562 24 30.011719 24 Z M 30.011719 24 "/>
</g>
</svg>
