<?xml version="1.0" encoding="UTF-8"?>
<svg xmlns="http://www.w3.org/2000/svg" xmlns:xlink="http://www.w3.org/1999/xlink" viewBox="0 0 150 150" width="150px" height="150px">
<g id="surface17425211">
<path style=" stroke:none;fill-rule:nonzero;fill:rgb(90.588236%,29.803923%,23.529412%);fill-opacity:1;" d="M 105.597656 6.304688 C 101.097656 6.304688 97.195312 7.195312 93.597656 8.097656 C 99.902344 10.792969 103.804688 14.097656 105.902344 15.597656 C 110.707031 19.792969 113.402344 24 118.207031 30.902344 C 119.097656 32.402344 120.597656 34.5 121.5 37.792969 C 122.402344 40.792969 122.402344 43.195312 122.402344 45.597656 C 122.402344 48.902344 122.097656 51.597656 121.792969 54.292969 C 121.5 56.402344 121.5 57.304688 121.207031 57.902344 C 121.207031 58.207031 121.207031 58.5 120.902344 59.097656 C 120.902344 60.597656 120.902344 61.207031 121.207031 62.402344 C 121.207031 63.597656 121.5 64.804688 121.5 66.902344 C 121.804688 70.804688 121.804688 73.5 121.207031 76.792969 L 121.207031 78 C 120.597656 80.695312 120 83.402344 118.5 85.792969 C 118.804688 86.402344 119.097656 86.695312 119.402344 87.292969 C 120.902344 85.195312 122.097656 83.097656 123.292969 80.707031 C 126.902344 74.097656 129 68.402344 130.5 64.207031 C 133.195312 56.402344 134.695312 50.695312 135.597656 46.5 C 137.695312 37.5 138 33.304688 137.097656 28.5 C 137.097656 27 136.5 24.292969 135 21.597656 C 131.695312 15.597656 126.597656 12.902344 123 11.097656 C 120.597656 9.902344 114.292969 6.597656 105.597656 6.304688 Z M 40.605469 7.628906 C 37.148438 7.558594 32.929688 7.945312 28.195312 10.195312 C 26.695312 10.804688 22.195312 12.902344 18.597656 17.695312 C 16.195312 20.695312 14.402344 25.195312 13.5 30.292969 C 12.597656 34.792969 12.292969 40.207031 14.097656 50.402344 C 15.292969 57.597656 16.5 62.402344 18.902344 72.292969 C 19.207031 73.5 21 78.902344 24.902344 90.902344 L 25.195312 91.5 C 25.804688 93.597656 27.597656 98.097656 31.5 102.597656 C 34.195312 105.597656 36.597656 107.402344 38.707031 107.402344 L 39.292969 107.402344 C 43.195312 107.402344 45.902344 104.402344 48.292969 102 C 48.292969 101.695312 54 94.804688 56.097656 92.402344 C 55.792969 92.097656 55.207031 92.097656 54.902344 91.792969 C 51.304688 89.695312 48.597656 86.402344 46.5 82.792969 C 42.902344 76.195312 43.195312 69.597656 43.792969 66.292969 L 44.097656 61.207031 C 42.902344 53.097656 43.207031 45.304688 44.707031 37.5 C 45.902344 30.902344 47.402344 24.304688 52.792969 17.402344 C 54.597656 15 56.695312 12.902344 58.792969 11.402344 C 54 9.304688 48.902344 8.097656 43.792969 7.804688 C 42.820312 7.722656 41.753906 7.652344 40.605469 7.628906 Z M 78.292969 10.195312 C 76.792969 10.195312 75.292969 10.195312 73.792969 10.5 C 67.792969 11.695312 62.097656 15 57.597656 20.695312 C 53.097656 26.402344 51.902344 31.792969 50.707031 38.097656 C 50.097656 40.5 50.097656 42.597656 49.792969 45 C 51.597656 43.5 54 41.695312 57.597656 40.792969 C 59.695312 40.195312 65.097656 38.402344 69.597656 41.097656 C 71.097656 42 73.195312 43.804688 75.292969 48.902344 C 79.792969 61.5 75.304688 74.402344 74.707031 75.597656 C 74.402344 76.792969 73.804688 77.695312 73.5 78.292969 C 72.902344 79.792969 72.304688 81 71.707031 83.402344 C 71.402344 85.5 71.097656 87.304688 71.097656 89.402344 C 72 89.402344 72.902344 89.695312 73.792969 90.292969 C 75.292969 91.792969 75.597656 93.902344 75.902344 94.792969 C 76.5 99.597656 76.5 105.597656 76.5 111.597656 C 76.5 116.402344 76.5 120.902344 76.792969 123.902344 C 77.402344 130.804688 79.5 135.597656 82.5 138 C 84.597656 139.804688 87.292969 139.792969 88.792969 140.097656 L 89.402344 140.097656 C 93.902344 140.097656 101.097656 137.097656 103.792969 132.902344 C 105.292969 130.5 105.902344 128.402344 106.5 125.402344 C 106.804688 123.597656 106.792969 122.707031 107.097656 120.902344 C 107.097656 120 107.402344 118.5 107.402344 116.707031 C 107.402344 115.207031 107.695312 113.402344 108 111.292969 C 108.304688 106.195312 109.195312 100.207031 109.5 96.902344 C 109.804688 93 111.597656 89.695312 113.097656 87.597656 C 111 87.292969 108.902344 85.5 107.707031 82.5 C 105.902344 79.195312 105.597656 78.292969 105.292969 76.792969 C 105 75.597656 104.402344 74.097656 102.292969 69.597656 C 97.792969 59.402344 97.207031 56.402344 97.207031 54 C 96.902344 50.695312 96.597656 46.207031 100.207031 43.207031 C 105.597656 38.402344 112.5 38.707031 116.097656 39.902344 L 116.097656 39.292969 C 115.5 36.902344 114.304688 35.097656 113.402344 33.902344 C 108.902344 27 106.5 23.402344 102.292969 19.804688 C 100.5 18.304688 96 14.695312 89.402344 12.304688 C 86.402344 11.402344 82.792969 10.195312 78.292969 10.195312 Z M 111.457031 45.375 C 109.277344 45.222656 106.5 45.597656 104.097656 47.707031 C 102.902344 48.902344 102.902344 51.304688 103.207031 53.402344 C 103.207031 54.902344 103.5 57 108 67.207031 C 110.097656 72 110.695312 73.5 111 74.707031 C 111.304688 75.902344 111.597656 76.5 113.402344 79.792969 C 113.707031 80.402344 114 81 114.597656 81.597656 C 115.195312 80.695312 115.5 79.195312 115.792969 76.792969 L 116.097656 75.902344 C 116.695312 73.207031 116.402344 71.097656 116.402344 67.5 C 116.402344 65.695312 116.097656 64.5 116.097656 63.597656 C 115.792969 62.097656 115.792969 60.902344 115.792969 59.097656 C 115.195312 58.195312 115.195312 57.902344 115.5 57.292969 C 115.5 56.695312 115.792969 55.804688 116.097656 54 C 116.402344 51.597656 116.707031 49.5 116.707031 47.097656 C 116.097656 46.792969 115.804688 46.5 115.207031 46.207031 C 115.207031 46.207031 113.625 45.527344 111.457031 45.375 Z M 64.546875 46.558594 C 62.636719 46.335938 60.445312 46.957031 59.097656 47.402344 C 55.792969 48.304688 53.707031 50.402344 52.207031 51.597656 C 51.304688 52.5 50.402344 53.402344 49.5 54.597656 C 49.5 56.695312 49.792969 58.804688 50.097656 60.902344 L 50.097656 61.207031 L 49.5 67.207031 C 48.902344 69.902344 48.597656 75 51.597656 80.097656 C 53.097656 83.097656 55.207031 85.5 57.902344 87 C 59.707031 88.195312 62.097656 89.097656 64.792969 89.707031 C 64.792969 87.597656 65.097656 85.195312 65.402344 83.097656 C 66 80.097656 66.597656 78.597656 67.5 76.792969 C 67.804688 75.902344 68.097656 75.304688 68.707031 74.402344 C 69 73.5 73.195312 62.097656 69.292969 51.597656 C 68.402344 49.195312 67.5 47.695312 66.292969 47.097656 C 65.777344 46.792969 65.167969 46.628906 64.546875 46.558594 Z M 108.5625 48.269531 C 109.347656 48.222656 110.097656 48.292969 110.402344 48.597656 C 111.304688 49.195312 110.097656 50.695312 109.792969 51 C 109.5 51.304688 108.902344 51.902344 108 52.207031 C 106.804688 52.5 105.902344 51.597656 105.597656 51.597656 C 105.292969 51.292969 104.402344 50.402344 104.707031 49.5 C 105 48.902344 105.304688 48.902344 106.5 48.597656 C 106.945312 48.445312 107.777344 48.304688 108.5625 48.269531 Z M 63.46875 50.753906 C 64.476562 50.683594 65.320312 51.070312 66 51.292969 C 66.902344 51.597656 67.792969 51.902344 67.792969 52.5 C 68.097656 53.402344 67.207031 54 66.902344 54.292969 C 66 55.195312 64.5 55.207031 64.5 55.207031 C 63 55.207031 62.097656 54.304688 61.5 53.402344 C 61.195312 53.097656 60.902344 52.5 61.207031 51.902344 C 61.5 51.304688 62.097656 51 62.402344 51 C 62.777344 50.847656 63.128906 50.777344 63.46875 50.753906 Z M 118.5 90 C 117 92.097656 114.902344 94.804688 114.597656 98.402344 C 114.597656 99 114.597656 99.304688 114.292969 99.902344 C 116.695312 100.5 118.804688 100.5 120.902344 100.207031 C 125.707031 99.597656 129 97.195312 129.597656 96.597656 C 131.695312 95.097656 134.402344 92.097656 133.792969 90.902344 C 133.5 90.304688 132.597656 90.597656 127.792969 90.902344 C 126.597656 90.902344 123 91.804688 120.597656 91.207031 L 120 91.207031 C 119.402344 90.902344 118.804688 90.597656 118.5 90 Z M 66.292969 96 C 65.695312 96.902344 64.804688 97.5 64.207031 98.097656 C 61.804688 99.597656 58.792969 100.804688 55.792969 101.402344 C 53.097656 102.304688 51.597656 102.304688 51.597656 103.207031 C 51.292969 104.402344 54.292969 105.902344 55.792969 106.5 C 60.902344 108.597656 66 107.402344 66.902344 107.097656 C 67.5 106.792969 69 106.195312 70.5 105.292969 C 70.5 102 70.207031 99 69.902344 96.597656 L 69.902344 96.292969 L 69.597656 96.292969 C 68.695312 96.292969 67.5 96.304688 66.292969 96 Z M 66.292969 96 "/>
</g>
</svg>
