<?xml version="1.0" encoding="UTF-8"?>
<svg xmlns="http://www.w3.org/2000/svg" xmlns:xlink="http://www.w3.org/1999/xlink" viewBox="0 0 128 128" width="128px" height="128px">
<g id="surface17433872">
<path style=" stroke:none;fill-rule:nonzero;fill:rgb(90.588236%,29.803923%,23.529412%);fill-opacity:1;" d="M 63.761719 6 C 55.324219 6.027344 46.757812 7.90625 38.660156 11.839844 C 24.832031 18.558594 14.242188 30.496094 9.214844 45.023438 C -1.273438 75.277344 14.75 108.300781 45.003906 118.785156 C 75.257812 129.269531 108.28125 113.25 118.769531 82.996094 C 123.859375 68.457031 122.90625 52.480469 116.128906 38.644531 C 106.074219 17.949219 85.328125 5.929688 63.761719 6 Z M 63.066406 9.972656 C 69.226562 9.867188 75.511719 10.820312 81.671875 12.957031 C 95.195312 17.644531 106.304688 27.511719 112.550781 40.386719 C 118.800781 53.261719 119.675781 68.097656 114.988281 81.621094 C 105.226562 109.78125 74.484375 124.699219 46.324219 114.9375 C 18.164062 105.175781 3.246094 74.433594 13.007812 46.273438 C 20.632812 24.273438 41.0625 10.355469 63.066406 9.972656 Z M 63.277344 16.636719 C 61.605469 16.613281 59.9375 16.679688 58.273438 16.835938 C 57.167969 16.871094 56.304688 17.796875 56.34375 18.898438 C 56.378906 20.003906 57.304688 20.867188 58.40625 20.828125 C 58.488281 20.824219 58.574219 20.820312 58.65625 20.804688 C 60.160156 20.648438 61.667969 20.570312 63.179688 20.578125 C 64.273438 20.425781 65.035156 19.417969 64.882812 18.324219 C 64.765625 17.476562 64.121094 16.796875 63.277344 16.636719 Z M 50.105469 18.484375 C 49.847656 18.457031 49.578125 18.480469 49.3125 18.558594 C 35.238281 22.839844 24.050781 33.574219 19.195312 47.460938 C 18.804688 48.492188 19.324219 49.648438 20.355469 50.039062 C 21.386719 50.429688 22.542969 49.914062 22.933594 48.882812 C 22.949219 48.847656 22.957031 48.8125 22.96875 48.777344 L 22.898438 48.847656 C 27.328125 36.132812 37.574219 26.292969 50.460938 22.386719 C 51.519531 22.070312 52.117188 20.957031 51.800781 19.898438 C 51.5625 19.105469 50.878906 18.570312 50.105469 18.484375 Z M 89.875 29.5 C 85.109375 29.5 81.253906 33.359375 81.253906 38.125 C 81.253906 42.890625 85.113281 46.753906 89.875 46.753906 C 91.101562 46.753906 92.265625 46.488281 93.324219 46.023438 L 86.996094 39.484375 C 86.863281 39.347656 86.792969 39.164062 86.800781 38.972656 C 86.808594 38.78125 86.894531 38.601562 87.035156 38.476562 L 95.070312 31.28125 C 93.621094 30.179688 91.835938 29.5 89.875 29.5 Z M 96.125 32.210938 L 88.507812 39.035156 L 94.597656 45.328125 C 96.945312 43.785156 98.496094 41.144531 98.496094 38.125 C 98.496094 35.828125 97.585938 33.757812 96.125 32.210938 Z M 95.964844 36.304688 C 96.234375 36.289062 96.5 36.429688 96.628906 36.6875 C 96.664062 36.761719 97.519531 38.523438 96.375 40.8125 C 96.253906 41.058594 96.007812 41.199219 95.75 41.199219 C 95.644531 41.199219 95.539062 41.175781 95.4375 41.125 C 95.089844 40.953125 94.949219 40.535156 95.125 40.1875 C 95.941406 38.554688 95.398438 37.355469 95.375 37.304688 C 95.210938 36.957031 95.355469 36.542969 95.699219 36.375 C 95.785156 36.332031 95.875 36.308594 95.964844 36.304688 Z M 78.816406 43.316406 C 77.53125 43.371094 76.070312 43.683594 74.5 44.25 C 68.25 46.5 60.75 54.75 60.75 54.75 L 54.734375 61.726562 L 59.671875 66.578125 L 82.089844 43.925781 C 81.214844 43.464844 80.101562 43.261719 78.816406 43.316406 Z M 83.203125 44.792969 L 60.667969 67.5625 L 63.578125 70.425781 L 80.5 53.261719 C 80.550781 53.214844 84.199219 49.613281 84.019531 46.414062 C 83.855469 45.78125 83.582031 45.230469 83.203125 44.792969 Z M 83.542969 51.753906 C 82.570312 53.179688 81.570312 54.171875 81.484375 54.253906 L 64.574219 71.402344 L 66.820312 73.613281 C 67.046875 73.40625 67.269531 73.210938 67.496094 73 C 79.683594 61.699219 82.246094 56.878906 83.542969 51.753906 Z M 53.816406 62.789062 L 48.25 69.25 L 58.457031 67.351562 Z M 59.441406 68.316406 L 55.925781 71.957031 L 62.167969 70.996094 Z M 63.410156 72.222656 L 54.320312 73.621094 L 37.65625 90.867188 L 44.648438 97.742188 L 45 97.75 L 43.25 90.5 C 43.25 90.5 52.890625 86.121094 65.785156 74.550781 Z M 103.484375 74.242188 C 102.71875 74.382812 102.074219 74.964844 101.894531 75.773438 C 101.667969 76.789062 102.253906 77.808594 103.246094 78.117188 L 107.105469 79.148438 C 108.183594 79.386719 109.253906 78.710938 109.492188 77.632812 C 109.71875 76.617188 109.128906 75.597656 108.136719 75.289062 L 104.28125 74.257812 C 104.011719 74.199219 103.738281 74.195312 103.484375 74.242188 Z M 100.085938 83.65625 C 99.308594 83.589844 98.53125 83.980469 98.144531 84.710938 C 97.652344 85.640625 97.964844 86.789062 98.855469 87.34375 L 102.316406 89.335938 C 103.28125 89.886719 104.507812 89.550781 105.058594 88.585938 C 105.609375 87.621094 105.273438 86.394531 104.308594 85.84375 L 100.847656 83.882812 C 100.605469 83.753906 100.34375 83.679688 100.085938 83.65625 Z M 93.664062 91.664062 C 93.152344 91.664062 92.644531 91.859375 92.253906 92.25 C 91.472656 93.03125 91.472656 94.292969 92.253906 95.074219 L 95.078125 97.902344 C 95.859375 98.683594 97.121094 98.683594 97.902344 97.902344 C 98.683594 97.121094 98.683594 95.855469 97.902344 95.074219 L 95.078125 92.25 C 94.6875 91.859375 94.175781 91.664062 93.664062 91.664062 Z M 36.683594 91.875 L 31.25 97.5 L 42.617188 97.707031 Z M 85.339844 97.875 C 85.082031 97.90625 84.832031 97.992188 84.59375 98.128906 C 83.644531 98.683594 83.320312 99.90625 83.871094 100.859375 L 85.851562 104.304688 C 86.371094 105.28125 87.578125 105.652344 88.550781 105.132812 C 89.527344 104.613281 89.898438 103.40625 89.378906 102.433594 C 89.355469 102.394531 89.335938 102.351562 89.3125 102.3125 L 87.320312 98.851562 C 86.902344 98.136719 86.109375 97.777344 85.339844 97.875 Z M 76.472656 101.773438 C 76.214844 101.734375 75.949219 101.746094 75.683594 101.816406 C 75.679688 101.820312 75.679688 101.816406 75.675781 101.816406 C 74.609375 102.101562 73.972656 103.199219 74.257812 104.265625 C 74.261719 104.269531 74.257812 104.269531 74.261719 104.277344 L 75.292969 108.136719 C 75.621094 109.191406 76.746094 109.773438 77.796875 109.445312 C 78.789062 109.136719 79.378906 108.121094 79.152344 107.105469 L 78.121094 103.246094 C 77.914062 102.445312 77.242188 101.886719 76.472656 101.773438 Z M 76.472656 101.773438 "/>
</g>
</svg>
