<?xml version="1.0" encoding="UTF-8"?>
<svg xmlns="http://www.w3.org/2000/svg" xmlns:xlink="http://www.w3.org/1999/xlink" viewBox="0 0 144 144" width="144px" height="144px">
<g id="surface21146103">
<path style=" stroke:none;fill-rule:nonzero;fill:rgb(90.588236%,29.803923%,23.529412%);fill-opacity:1;" d="M 72.140625 15 C 67.476562 15.015625 64.242188 15.425781 60.332031 16.101562 C 48.789062 18.109375 46.6875 22.332031 46.6875 30.109375 L 46.6875 42 L 73.6875 42 L 73.6875 48 L 32.609375 48 C 24.703125 48 17.78125 51.726562 15.589844 60.65625 C 13.109375 70.90625 13 77.328125 15.589844 88.03125 C 17.554688 96.015625 21.882812 102 29.792969 102 L 40.6875 102 L 40.6875 86.6875 C 40.6875 77.789062 48.746094 69 57.980469 69 L 79.6875 69 C 87.257812 69 94.6875 63.414062 94.6875 55.867188 L 94.6875 30.109375 C 94.6875 22.792969 89.410156 17.320312 82.035156 16.09375 C 82.21875 16.078125 76.765625 14.980469 72.140625 15 Z M 57.1875 27 C 59.652344 27 61.6875 29.03125 61.6875 31.507812 C 61.6875 34.003906 59.652344 36 57.1875 36 C 54.679688 36 52.6875 34.007812 52.6875 31.507812 C 52.6875 29.039062 54.679688 27 57.1875 27 Z M 57.1875 27 "/>
<path style=" stroke:none;fill-rule:nonzero;fill:rgb(94.509804%,76.862746%,5.882353%);fill-opacity:1;" d="M 69.234375 129 C 73.898438 128.984375 77.132812 128.574219 81.042969 127.898438 C 92.585938 125.890625 94.6875 121.667969 94.6875 113.890625 L 94.6875 102 L 67.6875 102 L 67.6875 96 L 108.769531 96 C 116.675781 96 123.597656 92.273438 125.789062 83.34375 C 128.269531 73.09375 128.378906 66.671875 125.789062 55.96875 C 123.820312 47.984375 119.492188 42 111.582031 42 L 100.6875 42 L 100.6875 57.3125 C 100.6875 66.210938 92.628906 75 83.394531 75 L 61.6875 75 C 54.117188 75 46.6875 80.585938 46.6875 88.132812 L 46.6875 113.890625 C 46.6875 121.207031 51.964844 126.679688 59.339844 127.90625 C 59.15625 127.921875 64.609375 129.019531 69.234375 129 Z M 84.1875 117 C 81.726562 117 79.6875 114.96875 79.6875 112.492188 C 79.6875 109.996094 81.726562 108 84.1875 108 C 86.699219 108 88.6875 109.992188 88.6875 112.492188 C 88.6875 114.960938 86.695312 117 84.1875 117 Z M 84.1875 117 "/>
</g>
</svg>
