<?xml version="1.0" encoding="UTF-8"?>
<svg xmlns="http://www.w3.org/2000/svg" xmlns:xlink="http://www.w3.org/1999/xlink" viewBox="0 0 150 150" width="150px" height="150px">
<g id="surface20395792">
<path style=" stroke:none;fill-rule:evenodd;fill:rgb(90.588236%,29.803923%,23.529412%);fill-opacity:1;" d="M 103.664062 11.953125 C 101.324219 11.875 98.875 12.28125 96.421875 13.078125 C 91.511719 14.667969 86.367188 17.773438 81.085938 22.066406 C 79.019531 23.75 76.929688 25.671875 74.835938 27.714844 C 72.789062 25.726562 70.742188 23.851562 68.71875 22.207031 C 63.441406 17.914062 58.3125 14.8125 53.414062 13.226562 C 48.515625 11.636719 43.640625 11.585938 39.640625 13.898438 C 35.636719 16.210938 33.242188 20.453125 32.167969 25.488281 C 31.09375 30.523438 31.210938 36.523438 32.292969 43.238281 C 32.664062 45.570312 33.199219 48.015625 33.808594 50.507812 C 31.519531 51.199219 29.300781 51.929688 27.242188 52.734375 C 21.023438 55.164062 15.878906 58.066406 12.132812 61.523438 C 8.390625 64.980469 5.96875 69.175781 5.96875 73.78125 C 5.96875 78.386719 8.390625 82.578125 12.132812 86.03125 C 15.878906 89.488281 21.023438 92.398438 27.242188 94.828125 C 29.441406 95.6875 31.828125 96.464844 34.289062 97.195312 C 33.402344 100.503906 32.6875 103.714844 32.195312 106.757812 C 31.117188 113.476562 31.003906 119.476562 32.078125 124.523438 C 33.15625 129.570312 35.550781 133.835938 39.574219 136.160156 C 43.597656 138.484375 48.492188 138.425781 53.402344 136.835938 C 58.3125 135.242188 63.449219 132.144531 68.730469 127.851562 C 70.78125 126.183594 72.855469 124.28125 74.929688 122.261719 C 77.015625 124.292969 79.097656 126.203125 81.15625 127.882812 C 86.433594 132.171875 91.570312 135.269531 96.46875 136.859375 C 101.367188 138.445312 106.242188 138.496094 110.242188 136.183594 C 114.246094 133.871094 116.636719 129.628906 117.710938 124.59375 C 118.78125 119.558594 118.664062 113.566406 117.585938 106.851562 C 117.09375 103.800781 116.378906 100.578125 115.488281 97.257812 C 118.03125 96.507812 120.492188 95.714844 122.757812 94.828125 C 128.976562 92.398438 134.121094 89.488281 137.867188 86.03125 C 141.609375 82.578125 144.03125 78.386719 144.03125 73.78125 C 144.03125 69.175781 141.609375 64.980469 137.867188 61.523438 C 134.121094 58.066406 128.976562 55.164062 122.757812 52.734375 C 120.671875 51.917969 118.414062 51.179688 116.089844 50.476562 C 116.707031 47.96875 117.25 45.507812 117.625 43.160156 C 118.707031 36.441406 118.820312 30.4375 117.742188 25.386719 C 116.667969 20.339844 114.265625 16.082031 110.242188 13.757812 C 108.234375 12.597656 106.003906 12.03125 103.664062 11.953125 Z M 103.390625 18.058594 C 104.855469 18.097656 106.109375 18.449219 107.179688 19.066406 C 109.320312 20.304688 110.90625 22.710938 111.75 26.671875 C 112.59375 30.632812 112.566406 35.984375 111.570312 42.195312 C 111.226562 44.320312 110.730469 46.570312 110.167969 48.878906 C 104.03125 47.402344 97.308594 46.304688 90.140625 45.664062 C 86.542969 40.679688 82.847656 36.136719 79.121094 32.109375 C 81.089844 30.183594 83.050781 28.386719 84.960938 26.832031 C 89.839844 22.863281 94.457031 20.164062 98.308594 18.914062 C 100.234375 18.289062 101.921875 18.019531 103.390625 18.058594 Z M 46.460938 18.074219 C 47.933594 18.035156 49.625 18.304688 51.554688 18.929688 C 55.421875 20.183594 60.046875 22.882812 64.929688 26.851562 C 66.800781 28.378906 68.714844 30.144531 70.648438 32.023438 C 66.890625 36.082031 63.164062 40.664062 59.542969 45.691406 C 52.40625 46.347656 45.710938 47.449219 39.605469 48.933594 C 39.042969 46.636719 38.546875 44.394531 38.210938 42.28125 C 37.210938 36.070312 37.1875 30.714844 38.035156 26.742188 C 38.878906 22.769531 40.476562 20.34375 42.640625 19.097656 C 43.71875 18.472656 44.984375 18.117188 46.460938 18.078125 Z M 74.929688 36.429688 C 77.375 39.085938 79.816406 41.996094 82.242188 45.128906 C 79.859375 45.03125 77.449219 44.972656 75 44.972656 C 72.503906 44.972656 70.046875 45.03125 67.617188 45.136719 C 70.042969 42 72.484375 39.089844 74.929688 36.429688 Z M 75 51.03125 C 79.078125 51.03125 83.054688 51.195312 86.921875 51.480469 C 89.585938 55.304688 92.1875 59.359375 94.664062 63.652344 C 96.839844 67.421875 98.8125 71.1875 100.605469 74.90625 C 98.792969 78.675781 96.789062 82.492188 94.582031 86.316406 C 92.640625 89.679688 90.609375 92.875 88.546875 95.960938 C 84.179688 96.324219 79.652344 96.527344 75 96.527344 C 70.238281 96.527344 65.609375 96.3125 61.140625 95.929688 C 59.113281 92.890625 57.121094 89.742188 55.207031 86.433594 C 53.003906 82.617188 51.011719 78.808594 49.199219 75.046875 C 51.019531 71.265625 53.019531 67.433594 55.234375 63.597656 C 57.703125 59.328125 60.292969 55.296875 62.941406 51.492188 C 66.851562 51.203125 70.875 51.03125 75 51.03125 Z M 94.648438 52.230469 C 99.59375 52.847656 104.234375 53.703125 108.554688 54.734375 C 107.273438 58.9375 105.695312 63.328125 103.78125 67.859375 C 102.539062 65.460938 101.25 63.058594 99.859375 60.652344 C 98.175781 57.730469 96.421875 54.949219 94.644531 52.230469 Z M 55.03125 52.277344 C 53.292969 54.945312 51.585938 57.671875 49.933594 60.535156 C 48.523438 62.972656 47.210938 65.410156 45.957031 67.835938 C 44.058594 63.332031 42.488281 58.964844 41.214844 54.785156 C 45.503906 53.753906 50.121094 52.902344 55.03125 52.277344 Z M 114.492188 56.328125 C 116.617188 56.96875 118.671875 57.640625 120.554688 58.378906 C 126.285156 60.613281 130.820312 63.265625 133.757812 65.976562 C 136.695312 68.6875 137.972656 71.273438 137.972656 73.78125 C 137.972656 76.289062 136.695312 78.875 133.757812 81.585938 C 130.820312 84.296875 126.285156 86.949219 120.554688 89.183594 C 118.464844 90.003906 116.164062 90.746094 113.773438 91.445312 C 112.066406 86.171875 109.886719 80.667969 107.296875 75.046875 C 110.277344 68.59375 112.683594 62.304688 114.492188 56.328125 Z M 35.40625 56.355469 C 37.195312 62.273438 39.574219 68.503906 42.507812 74.890625 C 39.902344 80.539062 37.714844 86.078125 36 91.382812 C 33.691406 90.699219 31.46875 89.976562 29.445312 89.1875 C 23.714844 86.949219 19.179688 84.296875 16.242188 81.585938 C 13.304688 78.875 12.03125 76.289062 12.03125 73.78125 C 12.03125 71.273438 13.304688 68.6875 16.242188 65.976562 C 19.179688 63.265625 23.714844 60.613281 29.445312 58.378906 C 31.296875 57.652344 33.316406 56.992188 35.410156 56.355469 Z M 75 60 C 66.75 60 60 66.75 60 75 C 60 83.25 66.75 90 75 90 C 83.25 90 90 83.25 90 75 C 90 66.75 83.25 60 75 60 Z M 46.023438 82.09375 C 47.289062 84.535156 48.601562 86.980469 50.015625 89.429688 C 51.125 91.351562 52.253906 93.21875 53.402344 95.050781 C 49.375 94.492188 45.542969 93.785156 41.949219 92.945312 C 43.089844 89.445312 44.460938 85.808594 46.027344 82.09375 Z M 103.859375 82.09375 C 105.429688 85.816406 106.800781 89.460938 107.949219 92.96875 C 104.339844 93.808594 100.496094 94.511719 96.457031 95.066406 C 97.621094 93.210938 98.769531 91.320312 99.890625 89.378906 C 101.296875 86.945312 102.601562 84.515625 103.859375 82.09375 Z M 40.21875 98.773438 C 45.648438 100.058594 51.53125 101.046875 57.773438 101.691406 C 61.9375 107.714844 66.277344 113.128906 70.648438 117.863281 C 68.695312 119.765625 66.757812 121.554688 64.863281 123.09375 C 59.984375 127.0625 55.363281 129.753906 51.511719 131.003906 C 47.65625 132.253906 44.78125 132.089844 42.640625 130.851562 C 40.496094 129.613281 38.917969 127.207031 38.074219 123.246094 C 37.230469 119.285156 37.253906 113.9375 38.25 107.730469 C 38.703125 104.914062 39.378906 101.898438 40.21875 98.773438 Z M 109.679688 98.796875 C 110.527344 101.941406 111.207031 104.96875 111.664062 107.800781 C 112.660156 114.011719 112.683594 119.367188 111.835938 123.339844 C 110.992188 127.3125 109.40625 129.742188 107.242188 130.992188 C 105.082031 132.242188 102.179688 132.402344 98.3125 131.152344 C 94.449219 129.898438 89.824219 127.199219 84.941406 123.230469 C 83.035156 121.675781 81.085938 119.875 79.117188 117.957031 C 83.515625 113.203125 87.886719 107.761719 92.078125 101.703125 C 98.335938 101.0625 104.238281 100.078125 109.679688 98.796875 Z M 65.601562 102.304688 C 68.683594 102.472656 71.800781 102.585938 75 102.585938 C 78.089844 102.585938 81.109375 102.480469 84.09375 102.320312 C 81.042969 106.4375 77.9375 110.175781 74.84375 113.542969 C 71.75 110.167969 68.644531 106.421875 65.601562 102.304688 Z M 65.601562 102.304688 "/>
</g>
</svg>
